<svg version="1.1" id="Logo" xmlns="http://www.w3.org/2000/svg" x="0" y="0" viewBox="0 0 638.76 595.35" style="background:0 0;enable-background:new 0 0 638.76 595.35" xml:space="preserve">
    <style>
        .st1{fill:#b62cf8}.st2{fill:#e9e8ea}
    </style>
    <switch>
        <g>
            <g id="Circles">
                <linearGradient id="SVGID_1_" gradientUnits="userSpaceOnUse" x1="191.045" y1="108.991" x2="530.393" y2="513.41">
                    <stop offset="0" style="stop-color:#b62cf8"/>
                    <stop offset=".04" style="stop-color:#b82ef0"/>
                    <stop offset=".496" style="stop-color:#d3489d"/>
                    <stop offset=".818" style="stop-color:#e45968"/>
                    <stop offset=".975" style="stop-color:#ea5f54"/>
                </linearGradient>
                <path d="M338.41 115.73c-4.85-8.01-10.64-13.92-19.89-16.57-27.61-6.82-37.15 18.28-40.31 36.97-2.57 12.18-9.38 74.34-60.44 38.05-.06-.07-9.9-7.82-9.97-7.88-26.67-22.02-50.96-30.01-67.07-15.04-13.21 12.28-11.11 36.92 3.48 59.83 6.23 9.79 13.53 16.46 23.29 24.03 49.88 41.65 3.45 64.5-4.38 66.99-30.96 11.13-36.13 27.28-30.5 45.03 2.87 9.07 10.22 15.75 19.72 19.18 7.34 2.64 26.27.84 29.19 29 .01.14.04.28.07.41 1.34 5.91 2.93 11.81 4.79 17.69 35.59 112.37 154.71 175.11 267.22 141.46C569.3 520.29 634.3 396.1 596.77 281.31c-30.88-94.46-121.02-153.29-216.05-148.3-19.54.24-25.61 7.33-42.31-17.28z" style="fill:url(#SVGID_1_)"/>
                <g id="Layer_8">
                    <circle class="st1" cx="273.06" cy="65.26" r="10.74"/>
                    <circle class="st1" cx="125.32" cy="61.76" r="5.86"/>
                    <circle class="st1" cx="219.81" cy="38.27" r="6.25"/>
                    <circle class="st1" cx="30.19" cy="56.8" r="6.54"/>
                    <circle class="st1" cx="149.47" cy="262.12" r="14.16"/>
                    <circle class="st1" cx="80.56" cy="291.35" r="10.35"/>
                    <circle class="st1" cx="70.76" cy="209.03" r="8.4"/>
                    <circle class="st1" cx="45.96" cy="139.95" r="6.97"/>
                    <circle class="st1" cx="107.07" cy="150.27" r="12.07"/>
                    <circle class="st1" cx="243.78" cy="148.48" r="14.16"/>
                    <circle class="st1" cx="199.77" cy="89.64" r="6.25"/>
                </g>
            </g>
            <g id="Letters">
                <g id="Layer_9">
                    <path class="st2" d="m456.57 423.89-5.88-9.99c-2.76-4.7 2.51-10 7.22-7.27l6.55 3.8c4.87 2.82 11 2.24 15.25-1.46l4.17-3.63c4.16-3.62 10.4.74 8.42 5.89l-4.09 10.65c-1.34 3.49-1.13 7.39.57 10.71l4.78 9.34c2.22 4.34-2.1 9.12-6.64 7.35l-7.1-2.78a13.166 13.166 0 0 0-13.93 2.79l-4.45 4.3c-4.06 3.92-10.61-.38-8.64-5.66l4.76-12.76c1.38-3.72 1.02-7.86-.99-11.28z" id="X"/>
                    <path class="st2" d="m452.77 325.88-1.46 44.61c-.13 4.03 3.1 7.37 7.13 7.37l23.57-.3c3.66 0 5.62-3.96 3.96-6.81-.38-.65-.96-1.15-1.6-1.53l-8.67-5.2c-.34-.2-.66-.43-.93-.71-1.73-1.86-2.06-4.55-1.03-6.72.63-1.33 1.96-2.2 3.43-2.32l5.23-.42c3.37-.27 5.2-4.33 2.92-6.83-.12-.13-.24-.25-.38-.37l-8.26-6.66a6.066 6.066 0 0 1-1.35-7.43c.44-.82 1.17-1.46 2.01-1.86l7.53-3.57c2.65-1.26 3.56-4.75 1.62-6.94-.8-.9-1.97-1.5-3.38-1.5l-23.2.3c-3.86-.01-7.02 3.05-7.14 6.89z" id="E"/>
                    <path class="st2" d="m378.68 220.26 107.54-.94c15.48-.14 28.21 12.15 28.62 27.63l.57 21.44c.16 5.96-4.55 10.91-10.51 11.05l-47.5 1.11c-6.11.14-11.29 4.54-12.43 10.55l-23.35 123.61c-.97 5.14-8.28 5.29-9.46.19l-42.37-183.35c-1.32-5.74 3-11.23 8.89-11.29z" id="T"/>
                </g>
                <path d="m277.21 301.36 51.33-6.42.18-.03c2.17-.28 24.53-4.22 29.81 22.19 3.58 28.55 5.36 68.13 5.79 80.68-.15 11.57 4.7 35.36-31.82 29.89-40.18-8.68-49.5 6.11-52.07 22.18-2.57 16.07 1.29 27 17.04 35.68s80.04 32.14 111.54-6.43c15.43-22.18 13.5-57.86 13.5-57.86s-9.2-146.08-9.96-153.32c-.76-7.24 1.61-39.21-49.18-37.29-35.04 1.93-65.89 3.86-80.68 5.79-14.79 1.93-27 3.54-25.07 20.57 1.29 19.28 3.54 34.71 3.54 34.71s2.56 11.35 16.05 9.66z" style="fill:#49526d" id="J"/>
            </g>
        </g>
    </switch>
</svg>
